<mxfile host="app.diagrams.net" agent="Mozilla/5.0 (X11; Linux x86_64; rv:132.0) Gecko/20100101 Firefox/132.0" version="24.7.17">
  <diagram name="Page-1" id="ki5Dq6IsCYei8-jPB706">
    <mxGraphModel dx="2070" dy="2241" grid="1" gridSize="10" guides="1" tooltips="1" connect="1" arrows="1" fold="1" page="1" pageScale="1" pageWidth="850" pageHeight="1100" math="0" shadow="0">
      <root>
        <mxCell id="0" />
        <mxCell id="1" parent="0" />
        <mxCell id="LIZioS5PRd0b6bWD3ao8-2" value="My AWS Organization" style="points=[[0,0],[0.25,0],[0.5,0],[0.75,0],[1,0],[1,0.25],[1,0.5],[1,0.75],[1,1],[0.75,1],[0.5,1],[0.25,1],[0,1],[0,0.75],[0,0.5],[0,0.25]];outlineConnect=0;html=1;whiteSpace=wrap;fontSize=12;fontStyle=0;container=1;pointerEvents=0;collapsible=0;recursiveResize=0;shape=mxgraph.aws4.group;grIcon=mxgraph.aws4.group_account;verticalAlign=top;align=left;spacingLeft=30;dashed=0;fillColor=#f5f5f5;fontColor=#333333;strokeColor=#666666;" vertex="1" parent="1">
          <mxGeometry x="340" y="-930" width="860" height="710" as="geometry" />
        </mxCell>
        <mxCell id="LIZioS5PRd0b6bWD3ao8-3" value="Management Account" style="sketch=0;outlineConnect=0;fontColor=#232F3E;gradientColor=none;fillColor=#E7157B;strokeColor=none;dashed=0;verticalLabelPosition=bottom;verticalAlign=top;align=center;html=1;fontSize=12;fontStyle=0;aspect=fixed;pointerEvents=1;shape=mxgraph.aws4.organizations_management_account;" vertex="1" parent="LIZioS5PRd0b6bWD3ao8-2">
          <mxGeometry x="401.13" y="60" width="56.93" height="60" as="geometry" />
        </mxCell>
        <mxCell id="LIZioS5PRd0b6bWD3ao8-23" style="edgeStyle=orthogonalEdgeStyle;rounded=0;orthogonalLoop=1;jettySize=auto;html=1;" edge="1" parent="LIZioS5PRd0b6bWD3ao8-2" source="LIZioS5PRd0b6bWD3ao8-6" target="LIZioS5PRd0b6bWD3ao8-13">
          <mxGeometry relative="1" as="geometry" />
        </mxCell>
        <mxCell id="LIZioS5PRd0b6bWD3ao8-6" value="Development OU" style="sketch=0;outlineConnect=0;fontColor=#232F3E;gradientColor=none;fillColor=#DD344C;strokeColor=none;dashed=0;verticalLabelPosition=bottom;verticalAlign=top;align=center;html=1;fontSize=12;fontStyle=0;aspect=fixed;pointerEvents=1;shape=mxgraph.aws4.organizations_organizational_unit;" vertex="1" parent="LIZioS5PRd0b6bWD3ao8-2">
          <mxGeometry x="239.58999999999997" y="240" width="69.88" height="60" as="geometry" />
        </mxCell>
        <mxCell id="LIZioS5PRd0b6bWD3ao8-25" style="edgeStyle=orthogonalEdgeStyle;rounded=0;orthogonalLoop=1;jettySize=auto;html=1;" edge="1" parent="LIZioS5PRd0b6bWD3ao8-2" source="LIZioS5PRd0b6bWD3ao8-8" target="LIZioS5PRd0b6bWD3ao8-15">
          <mxGeometry relative="1" as="geometry" />
        </mxCell>
        <mxCell id="LIZioS5PRd0b6bWD3ao8-8" value="Production OU" style="sketch=0;outlineConnect=0;fontColor=#232F3E;gradientColor=none;fillColor=#DD344C;strokeColor=none;dashed=0;verticalLabelPosition=bottom;verticalAlign=top;align=center;html=1;fontSize=12;fontStyle=0;aspect=fixed;pointerEvents=1;shape=mxgraph.aws4.organizations_organizational_unit;" vertex="1" parent="LIZioS5PRd0b6bWD3ao8-2">
          <mxGeometry x="549.59" y="240" width="69.88" height="60" as="geometry" />
        </mxCell>
        <mxCell id="LIZioS5PRd0b6bWD3ao8-22" style="edgeStyle=orthogonalEdgeStyle;rounded=0;orthogonalLoop=1;jettySize=auto;html=1;" edge="1" parent="LIZioS5PRd0b6bWD3ao8-2" source="LIZioS5PRd0b6bWD3ao8-7" target="LIZioS5PRd0b6bWD3ao8-12">
          <mxGeometry relative="1" as="geometry" />
        </mxCell>
        <mxCell id="LIZioS5PRd0b6bWD3ao8-7" value="Infrastructure OU" style="sketch=0;outlineConnect=0;fontColor=#232F3E;gradientColor=none;fillColor=#DD344C;strokeColor=none;dashed=0;verticalLabelPosition=bottom;verticalAlign=top;align=center;html=1;fontSize=12;fontStyle=0;aspect=fixed;pointerEvents=1;shape=mxgraph.aws4.organizations_organizational_unit;" vertex="1" parent="LIZioS5PRd0b6bWD3ao8-2">
          <mxGeometry x="99.59" y="240" width="69.88" height="60" as="geometry" />
        </mxCell>
        <mxCell id="LIZioS5PRd0b6bWD3ao8-24" style="edgeStyle=orthogonalEdgeStyle;rounded=0;orthogonalLoop=1;jettySize=auto;html=1;" edge="1" parent="LIZioS5PRd0b6bWD3ao8-2" source="LIZioS5PRd0b6bWD3ao8-9" target="LIZioS5PRd0b6bWD3ao8-14">
          <mxGeometry relative="1" as="geometry" />
        </mxCell>
        <mxCell id="LIZioS5PRd0b6bWD3ao8-9" value="Testing OU" style="sketch=0;outlineConnect=0;fontColor=#232F3E;gradientColor=none;fillColor=#DD344C;strokeColor=none;dashed=0;verticalLabelPosition=bottom;verticalAlign=top;align=center;html=1;fontSize=12;fontStyle=0;aspect=fixed;pointerEvents=1;shape=mxgraph.aws4.organizations_organizational_unit;" vertex="1" parent="LIZioS5PRd0b6bWD3ao8-2">
          <mxGeometry x="394.65" y="240" width="69.88" height="60" as="geometry" />
        </mxCell>
        <mxCell id="LIZioS5PRd0b6bWD3ao8-26" style="edgeStyle=orthogonalEdgeStyle;rounded=0;orthogonalLoop=1;jettySize=auto;html=1;" edge="1" parent="LIZioS5PRd0b6bWD3ao8-2" source="LIZioS5PRd0b6bWD3ao8-11" target="LIZioS5PRd0b6bWD3ao8-16">
          <mxGeometry relative="1" as="geometry" />
        </mxCell>
        <mxCell id="LIZioS5PRd0b6bWD3ao8-11" value="Sandbox OU" style="sketch=0;outlineConnect=0;fontColor=#232F3E;gradientColor=none;fillColor=#DD344C;strokeColor=none;dashed=0;verticalLabelPosition=bottom;verticalAlign=top;align=center;html=1;fontSize=12;fontStyle=0;aspect=fixed;pointerEvents=1;shape=mxgraph.aws4.organizations_organizational_unit;" vertex="1" parent="LIZioS5PRd0b6bWD3ao8-2">
          <mxGeometry x="690.5300000000001" y="240" width="69.88" height="60" as="geometry" />
        </mxCell>
        <mxCell id="LIZioS5PRd0b6bWD3ao8-12" value="Member Account" style="sketch=0;outlineConnect=0;fontColor=#232F3E;gradientColor=none;fillColor=#E7157B;strokeColor=none;dashed=0;verticalLabelPosition=bottom;verticalAlign=top;align=center;html=1;fontSize=12;fontStyle=0;aspect=fixed;pointerEvents=1;shape=mxgraph.aws4.organizations_account;" vertex="1" parent="LIZioS5PRd0b6bWD3ao8-2">
          <mxGeometry x="100.53" y="390" width="68" height="71.7" as="geometry" />
        </mxCell>
        <mxCell id="LIZioS5PRd0b6bWD3ao8-13" value="Member Account" style="sketch=0;outlineConnect=0;fontColor=#232F3E;gradientColor=none;fillColor=#E7157B;strokeColor=none;dashed=0;verticalLabelPosition=bottom;verticalAlign=top;align=center;html=1;fontSize=12;fontStyle=0;aspect=fixed;pointerEvents=1;shape=mxgraph.aws4.organizations_account;" vertex="1" parent="LIZioS5PRd0b6bWD3ao8-2">
          <mxGeometry x="240.53" y="390" width="68" height="71.7" as="geometry" />
        </mxCell>
        <mxCell id="LIZioS5PRd0b6bWD3ao8-14" value="Member Account" style="sketch=0;outlineConnect=0;fontColor=#232F3E;gradientColor=none;fillColor=#E7157B;strokeColor=none;dashed=0;verticalLabelPosition=bottom;verticalAlign=top;align=center;html=1;fontSize=12;fontStyle=0;aspect=fixed;pointerEvents=1;shape=mxgraph.aws4.organizations_account;" vertex="1" parent="LIZioS5PRd0b6bWD3ao8-2">
          <mxGeometry x="395.6" y="390" width="68" height="71.7" as="geometry" />
        </mxCell>
        <mxCell id="LIZioS5PRd0b6bWD3ao8-15" value="Member Account" style="sketch=0;outlineConnect=0;fontColor=#232F3E;gradientColor=none;fillColor=#E7157B;strokeColor=none;dashed=0;verticalLabelPosition=bottom;verticalAlign=top;align=center;html=1;fontSize=12;fontStyle=0;aspect=fixed;pointerEvents=1;shape=mxgraph.aws4.organizations_account;" vertex="1" parent="LIZioS5PRd0b6bWD3ao8-2">
          <mxGeometry x="550.53" y="390" width="68" height="71.7" as="geometry" />
        </mxCell>
        <mxCell id="LIZioS5PRd0b6bWD3ao8-16" value="Member Account" style="sketch=0;outlineConnect=0;fontColor=#232F3E;gradientColor=none;fillColor=#E7157B;strokeColor=none;dashed=0;verticalLabelPosition=bottom;verticalAlign=top;align=center;html=1;fontSize=12;fontStyle=0;aspect=fixed;pointerEvents=1;shape=mxgraph.aws4.organizations_account;" vertex="1" parent="LIZioS5PRd0b6bWD3ao8-2">
          <mxGeometry x="691.4700000000001" y="390" width="68" height="71.7" as="geometry" />
        </mxCell>
      </root>
    </mxGraphModel>
  </diagram>
</mxfile>
